<?xml version="1.0" encoding="utf-8"?>
<!-- Generator: Adobe Illustrator 28.0.0, SVG Export Plug-In . SVG Version: 6.00 Build 0)  -->
<svg version="1.1" id="Layer_1" xmlns="http://www.w3.org/2000/svg" xmlns:xlink="http://www.w3.org/1999/xlink" x="0px" y="0px"
	 viewBox="0 0 521.2 109" style="enable-background:new 0 0 521.2 109;" xml:space="preserve">
<style type="text/css">
	.st0{fill:#424754;}
	.st1{fill:#A08463;}
	.st2{fill:#DDAB5E;}
</style>
<g id="inline_logo_on_white">
	<path class="st0" d="M124.6,95.5c-3.7,0-5.3-0.1-7.3-0.1c-2.3,0-4.3,0.1-6.4,0.1c-0.8,0-1-0.1-1-0.3s0.3-0.3,1-0.3
		c1.1,0,2.9-0.5,3.5-1.6c0.3-0.7,0.5-1.5,0.4-2.2V73.5c0.1-1,0-2-0.4-2.9c-0.6-1.1-2.4-1.6-3.5-1.6c-0.8,0-1-0.1-1-0.3
		s0.3-0.3,1-0.3c2,0,3.9,0.1,6.2,0.1c1.9,0,4-0.1,5.9-0.1h13.8c1.1,0,2.2-0.1,3.2-0.5c0.4,0,0.5,0.1,0.4,0.7l-0.7,6.2
		c-0.1,0.6-0.7,0.6-0.8,0c-0.4-4.5-2.8-4.7-7.4-4.7h-8.3c-2.9,0-3.7,0.5-3.7,3.7v6.1c0,0.3,0.1,0.4,0.4,0.4h9.2c2.9,0,4.3-1.4,4.7-3
		c0.1-0.5,0.2-1,0.5-1s0.3,0.4,0.3,1c0,1.1-0.1,2.8-0.1,3.9s0.1,2.8,0.1,3.9c0,0.5,0,1-0.3,1s-0.3-0.3-0.5-1c-0.3-1.6-1.8-3-4.7-3
		h-9.2c-0.3,0-0.4,0.1-0.4,0.4v6.2c0,4.1,0.6,4.9,5.7,4.9h5.1c5.7,0,8.5-1.1,10.6-5.8c0.3-0.5,0.8-0.3,0.7,0.1l-1.3,4.3
		c-0.9,2.9-1.2,3.2-4.3,3.2L124.6,95.5z"/>
	<path class="st0" d="M183.8,93.2c0,2.2,0,2.8-0.3,2.8s-0.6-0.1-1.8-1l-25.9-21.8v16.8c0,3.1,0.8,5,4.6,5c0.6,0,0.8,0.1,0.8,0.3
		s-0.2,0.3-0.7,0.3c-2,0-3.9-0.1-5.9-0.1s-4,0.1-5.9,0.1c-0.5,0-0.7-0.1-0.7-0.3s0.3-0.3,0.8-0.3c3.6,0,4.7-1.8,4.7-5V72.5
		c-0.2-2.5-1.9-3.4-4.6-3.4c-0.6,0-0.8-0.2-0.8-0.4s0.3-0.3,0.7-0.3h6.3c2.4,0,2.7,0.1,5.4,2.4l20.9,17.7V74c0-2.9-0.6-4.9-4.5-4.9
		c-0.4,0-0.9,0-0.9-0.3s0.3-0.3,0.8-0.3c1.9,0,4.1,0.1,5.8,0.1c1.9,0,4.2-0.1,6-0.1c0.6,0,0.7,0.1,0.7,0.3s-0.2,0.3-0.9,0.3
		c-3.4,0-4.6,1.8-4.6,5L183.8,93.2z"/>
	<path class="st0" d="M208.4,70.5H200c-2.8,0-4.1,1.6-4.9,4.5c-0.1,0.3-0.3,0.4-0.5,0.4s-0.3-0.3-0.3-0.6l0.7-6.4
		c0.1-0.3,0.1-0.5,0.4-0.5c0.6,0.3,1.4,0.5,2.1,0.5h26.5c0.7,0,1.5-0.1,2.1-0.5c0.2,0,0.3,0.1,0.4,0.5l0.7,6.5
		c0.1,0.3-0.1,0.5-0.3,0.5s-0.3-0.1-0.5-0.4c-0.7-3-2-4.5-4.9-4.5h-8.4v19.8c-0.1,1,0,1.9,0.4,2.9c0.8,1,2.1,1.6,3.4,1.6
		c0.5,0,1.1,0.1,1.1,0.3s-0.4,0.3-1,0.3c-2,0-4-0.1-6.4-0.1s-4.3,0.1-6.3,0.1c-0.6,0-0.9-0.1-0.9-0.3s0.5-0.3,1-0.3
		c1.1,0,2.9-0.5,3.4-1.6c0.3-0.9,0.5-1.9,0.4-2.9L208.4,70.5z"/>
	<path class="st0" d="M247.8,95.5c-3.7,0-5.3-0.1-7.3-0.1c-2.3,0-4.3,0.1-6.4,0.1c-0.8,0-1-0.1-1-0.3s0.3-0.3,1-0.3
		c1.1,0,2.9-0.5,3.5-1.6c0.3-0.7,0.5-1.5,0.4-2.2V73.5c0.1-1,0-2-0.4-2.9c-0.6-1.1-2.4-1.6-3.5-1.6c-0.8,0-1-0.1-1-0.3
		s0.3-0.3,1-0.3c2,0,3.9,0.1,6.2,0.1c1.9,0,4-0.1,5.9-0.1h13.8c1.1,0,2.2-0.1,3.2-0.5c0.4,0,0.5,0.1,0.4,0.7l-0.7,6.2
		c-0.1,0.6-0.7,0.6-0.8,0c-0.4-4.5-2.8-4.7-7.4-4.7h-8.3c-2.9,0-3.7,0.5-3.7,3.7v6.1c0,0.3,0.1,0.4,0.4,0.4h9.2c2.9,0,4.3-1.4,4.7-3
		c0.1-0.5,0.2-1,0.5-1s0.3,0.4,0.3,1c0,1.1-0.1,2.8-0.1,3.9s0.1,2.8,0.1,3.9c0,0.5,0,1-0.3,1c-0.3,0-0.3-0.3-0.5-1
		c-0.3-1.6-1.8-3-4.7-3h-9.2c-0.3,0-0.4,0.1-0.4,0.4v6.2c0,4.1,0.6,4.9,5.7,4.9h5.1c5.7,0,8.5-1.1,10.6-5.8c0.3-0.5,0.8-0.3,0.7,0.1
		l-1.3,4.3c-0.9,2.9-1.2,3.2-4.3,3.2L247.8,95.5z"/>
	<path class="st0" d="M272.4,69.1c-0.7,0-1.3,0-1.3-0.3s0.5-0.3,1-0.3c2.9,0,4.4,0.1,7.5,0.1s7.8-0.1,10.6-0.1
		c5.8,0,13.8,0.6,13.8,7.6c0,4.8-3.8,6.6-8.2,7.3c1.1,0.5,1.9,1.7,3.1,3.3c5,7.1,6.9,8.3,10.7,8.3c0.7,0,0.7,0.5,0.1,0.6
		c-1,0.1-2,0.2-3,0.2c-6.4,0-7.5-0.1-13.2-8.3c-2.4-3.4-3.2-3.7-4.3-3.7h-7.1c-0.3,0-0.3,0.1-0.3,0.3v5.1c0,5.2,2.2,5.6,4.5,5.6
		c0.7,0,1.3,0,1.3,0.4s-0.5,0.3-1,0.3c-2.7,0-4.8-0.1-7.2-0.1s-4.6,0.1-7.3,0.1c-0.6,0-1,0-1-0.3s0.6-0.4,1.2-0.4
		c2.4-0.1,4.6-0.4,4.6-5.6V75C276.9,69.8,274.8,69.1,272.4,69.1z M291,82.1c4.2,0,7.7-1.8,7.7-6c0-4.8-3.5-6-7.7-6h-4.1
		c-5.1,0-5.1,0.1-5.1,4.8v6.9c0,0.2,0.1,0.3,0.3,0.3L291,82.1z"/>
	<path class="st0" d="M314.8,69.1c-0.7-0.1-1.2-0.1-1.2-0.3s0.4-0.4,1-0.4c2.7,0,4.7,0.1,7.1,0.1c3.6,0,8.7-0.1,10.5-0.1
		c5.6,0,14.9,0.9,14.9,7.9s-9.2,7.9-14.7,7.9h-7.9c-0.3,0-0.3,0.1-0.3,0.3v4.6c0,5.2,2.2,5.6,4.5,5.6c0.7,0,1.3,0.1,1.3,0.4
		s-0.4,0.3-1,0.3c-2.7,0-4.8-0.1-7.1-0.1s-4.7,0.1-7.4,0.1c-0.5,0-1-0.1-1-0.3s0.6-0.4,1.3-0.4c2.4,0,4.5-0.4,4.5-5.6V73.6
		C319.3,69.6,317.2,69.1,314.8,69.1z M332.5,82.5c5.6,0,9-1.6,9-6.2s-3.4-6.2-9.1-6.2h-4c-4.1,0-4.3,0.1-4.3,3.7v8.5
		c0,0.2,0.1,0.3,0.3,0.3L332.5,82.5z"/>
	<path class="st0" d="M353.4,69.1c-0.7,0-1.3,0-1.3-0.3s0.5-0.3,1-0.3c2.9,0,4.3,0.1,7.5,0.1s7.8-0.1,10.6-0.1
		c5.8,0,13.8,0.6,13.8,7.6c0,4.8-3.8,6.6-8.2,7.3c1.1,0.5,1.9,1.7,3.1,3.3c5,7.1,6.9,8.3,10.7,8.3c0.7,0,0.7,0.5,0.1,0.6
		c-1,0.1-2,0.2-3,0.2c-6.4,0-7.5-0.1-13.2-8.3c-2.4-3.4-3.2-3.7-4.3-3.7h-7.1c-0.3,0-0.3,0.1-0.3,0.3v5.1c0,5.2,2.2,5.6,4.5,5.6
		c0.7,0,1.3,0,1.3,0.4s-0.5,0.3-1,0.3c-2.7,0-4.8-0.1-7.2-0.1s-4.6,0.1-7.3,0.1c-0.6,0-1,0-1-0.3s0.6-0.4,1.2-0.4
		c2.4-0.1,4.6-0.4,4.6-5.6V75C357.9,69.8,355.8,69.1,353.4,69.1z M372,82.1c4.2,0,7.7-1.8,7.7-6c0-4.8-3.5-6-7.7-6h-4.1
		c-5.1,0-5.1,0.1-5.1,4.8v6.9c0,0.2,0.1,0.3,0.3,0.3L372,82.1z"/>
	<path class="st0" d="M400,72.9c0.1-0.8-0.1-1.5-0.4-2.2c-0.6-1.1-2.4-1.6-3.5-1.6c-0.5,0-1.1-0.1-1.1-0.4s0.4-0.3,1-0.3
		c2,0,4,0.1,6.4,0.1s4.5-0.1,6.4-0.1c0.5,0,1,0.1,1,0.3s-0.5,0.3-1.1,0.3c-1.8-0.3-3.6,0.9-3.9,2.8c-0.1,0.4-0.1,0.7,0,1.1v17.4
		c-0.1,1,0.1,1.9,0.4,2.9c0.8,1,2.1,1.7,3.5,1.6c0.5,0,1.1,0.1,1.1,0.3s-0.4,0.3-1,0.3c-2,0-4-0.1-6.4-0.1s-4.4,0.1-6.5,0.1
		c-0.5,0-1-0.1-1-0.3s0.5-0.3,1.1-0.3c1.3,0,2.6-0.6,3.5-1.6c0.4-0.9,0.5-1.9,0.4-2.9V72.9z"/>
	<path class="st0" d="M444,75.6c0.1,0.7-0.5,0.9-0.7,0.1c-1.2-5.1-6.7-6-11.2-6c-5.5,0-10,1.2-10,4.5c0,7.5,24,1.5,24,13.2
		c0,5.6-5.8,8.5-14.6,8.5c-4,0.1-8-0.6-11.8-2c-1.1-0.3-0.8,0.6-1.3,0.6c-0.3,0-0.5-0.3-0.7-1.2l-0.8-6.9c0-0.2,0.2-0.4,0.4-0.4
		c0,0,0,0,0,0c0.3,0,0.3,0.1,0.4,0.5c2.4,6.6,8.9,7.5,13.8,7.5c7,0,10.7-2.3,10.7-5.3c0-8.7-24.2-1.8-24.2-13.2
		c0-6.3,7.7-7.7,13.9-7.7c3.3,0,6.6,0.5,9.7,1.5c1.1,0.3,0.8-0.5,1.4-0.5c0.3,0,0.5,0.3,0.6,1.8L444,75.6z"/>
	<path class="st0" d="M467.8,95.5c-3.7,0-5.3-0.1-7.3-0.1c-2.3,0-4.3,0.1-6.4,0.1c-0.7,0-1-0.1-1-0.3s0.3-0.3,1-0.3
		c1.1,0,2.9-0.5,3.5-1.6c0.3-0.7,0.5-1.5,0.4-2.2V73.5c0.1-1,0-2-0.4-2.9c-0.6-1.1-2.4-1.6-3.5-1.6c-0.7,0-1-0.1-1-0.3
		s0.3-0.3,1-0.3c2,0,3.9,0.1,6.2,0.1c1.9,0,4-0.1,5.9-0.1h13.8c1.1,0,2.2-0.1,3.2-0.5c0.4,0,0.5,0.1,0.4,0.7l-0.7,6.2
		c-0.1,0.6-0.7,0.6-0.8,0c-0.4-4.5-2.8-4.7-7.4-4.7h-8.2c-2.9,0-3.7,0.5-3.7,3.7v6.1c0,0.3,0.1,0.4,0.4,0.4h9.2c2.9,0,4.3-1.4,4.7-3
		c0.1-0.5,0.2-1,0.5-1s0.3,0.4,0.3,1c0,1.1-0.1,2.8-0.1,3.9s0.1,2.8,0.1,3.9c0,0.5,0,1-0.3,1s-0.3-0.3-0.5-1c-0.3-1.6-1.8-3-4.7-3
		h-9.2c-0.3,0-0.4,0.1-0.4,0.4v6.2c0,4.1,0.6,4.9,5.7,4.9h5.1c5.7,0,8.5-1.1,10.7-5.8c0.3-0.5,0.8-0.3,0.7,0.1l-1.3,4.3
		c-0.9,2.9-1.2,3.2-4.3,3.2L467.8,95.5z"/>
	<path class="st0" d="M519.2,75.6c0.1,0.7-0.5,0.9-0.8,0.1c-1.2-5.1-6.7-6-11.2-6c-5.5,0-10,1.2-10,4.5c0,7.5,24,1.5,24,13.2
		c0,5.6-5.8,8.5-14.6,8.5c-4,0.1-8-0.6-11.8-2c-1.1-0.3-0.7,0.6-1.3,0.6c-0.3,0-0.5-0.3-0.7-1.2l-0.8-6.9c0-0.2,0.2-0.4,0.4-0.4
		c0,0,0,0,0,0c0.3,0,0.3,0.1,0.4,0.5c2.4,6.6,8.9,7.5,13.8,7.5c7,0,10.7-2.3,10.7-5.3c0-8.7-24.2-1.8-24.2-13.2
		c0-6.3,7.7-7.7,13.9-7.7c3.3,0,6.6,0.5,9.7,1.5c1.1,0.3,0.8-0.5,1.4-0.5c0.3,0,0.5,0.3,0.6,1.8L519.2,75.6z"/>
	<path class="st1" d="M170,48c0,6.2-15.5,7-22,7c-14.2,0-33.1-6-33.1-22.6c0-15.6,16.7-22.2,33.2-22.2c8.4,0,11.5,1.2,17.3,2.6
		c0.6,0.2,1.2,0.3,1.9,0.3c0.8,0,1-0.8,1.4-0.8c1,0,1.1,0.6,1.1,4.1v8.6c0,0.6-0.1,1.1-0.4,1.1s-0.6-0.4-0.6-1.1
		c0-8.1-6.9-12.7-20.6-12.7c-16.3,0-25,8.1-25,20.3c0,13.4,11.2,20.2,25,20.2c5.3,0,15.4-0.4,15.4-4.8v-5.7c0-5.8-3.4-6.5-6.2-6.5
		c-1.2,0-1.9,0-1.9-0.4s0.7-0.5,1.6-0.5c3.1,0,6.4,0.1,9.6,0.1s6.4-0.1,9.6-0.1c1.1,0,1.6,0.1,1.6,0.5s-0.7,0.4-1.8,0.4
		c-2.3,0.1-4.7,1-5.6,2.7c-0.4,0.8-0.6,2-0.6,4.6L170,48z"/>
	<path class="st1" d="M204.5,54.2c-6.5,0-8.9-0.1-11.6-0.1c-3.2,0-6.2,0.1-9.5,0.1c-1.3,0-1.6-0.1-1.6-0.5s0.3-0.4,1.5-0.4
		c1.7,0,4.7-0.9,5.7-2.6c0.5-1.2,0.8-2.4,0.7-3.7V19.4c0-2.5-0.2-4-0.7-4.9c-1-1.7-3.9-2.6-5.7-2.6c-1.2,0-1.5-0.1-1.5-0.5
		s0.3-0.4,1.6-0.4c3.1,0,6.1,0.2,9.1,0.2s6.2-0.2,9.3-0.2h22c1.7,0.1,3.5-0.2,5.1-0.8c0.5,0,0.8,0.2,0.6,0.9l-1.2,10.1
		c-0.1,0.8-1,0.9-1.1-0.1c-0.5-7.4-4.5-7.6-12.1-7.6h-13.2c-4.8,0-6,0.9-6,6.1v10.1c0,0.4,0.1,0.4,0.4,0.4h15.2c4.7,0,7-1.9,7.6-4.6
		c0.2-0.9,0.4-1.5,0.9-1.5s0.4,0.7,0.4,1.5c0,1.6-0.2,4.4-0.2,6s0.2,4.2,0.2,5.9c0,0.9,0,1.6-0.4,1.6s-0.5-0.6-0.9-1.6
		c-0.5-2.5-2.8-4.6-7.6-4.6h-15.2c-0.2,0-0.4,0.1-0.4,0.4c0,0,0,0.1,0,0.1v10.7c0,6.5,0.6,7.7,9.1,7.7h8.5c8.8,0,13.4-1.4,17-9.2
		c0.4-0.8,1.2-0.4,1.1,0.2l-2.1,6.6c-1.3,4.5-2,5-7,5L204.5,54.2z"/>
	<path class="st1" d="M252.7,43.6c0,6.2,0.1,8,8.6,8h8c8.3,0,13.7-1.1,17.8-10.8c0.3-0.6,1.3-0.4,1.1,0.2l-2.6,9.1
		c-0.9,3.4-1.5,4-4.7,4h-21.5c-4,0-6.3-0.1-10.3-0.1c-3.3,0-7,0.1-10.4,0.1c-0.3,0-0.6-0.2-0.8-0.4c0-0.3,0.3-0.6,0.9-0.6
		c5.7,0,7.2-4,7.2-8.6V21c0-3.4-0.2-5.1-1-6.2c-1.2-1.9-4.1-2.8-6.2-2.8c-1,0-1.9,0-1.9-0.5s0.5-0.5,1.5-0.5c3.5,0,7.2,0.2,10.6,0.2
		s7-0.2,11.1-0.2c1,0,1.5,0,1.5,0.5s-1,0.5-1.9,0.5c-2.1,0-5.1,1-6.3,2.8c-0.6,1.1-0.9,2.7-0.9,6.2L252.7,43.6z"/>
	<path class="st1" d="M320.6,10.1c19,0,30.7,9.8,30.7,21.9s-11.1,23-31.6,23c-18.7,0-30.6-9.5-30.6-21.8
		C289.2,21.3,300.2,10.1,320.6,10.1z M297.6,31.7c0,10.8,6.9,21.4,23.2,21.4C334,53,343,46,343,33.6c0-10.8-6.9-21.6-23.2-21.6
		C306.6,12.1,297.6,19.4,297.6,31.7z"/>
	<path class="st1" d="M398.1,22.4c0,1-0.9,1.2-1.1,0.1c-2-8.5-10.9-9.8-17.8-9.8c-8.7,0-16.6,1.9-16.6,7.7c0,12.7,38.5,2.3,38.5,21
		c0,8.4-8.2,13.5-22.8,13.5c-6.4,0.1-12.8-0.9-18.9-3.1c-1.7-0.5-1.2,1.1-2,1.1c-0.4,0-0.9-0.4-1-1.9l-1.4-11c0-0.3,0.2-0.6,0.6-0.6
		c0,0,0.1,0,0.1,0c0.3,0,0.3,0.2,0.5,0.8c3.6,10.7,14.1,12.2,22,12.2c12.1,0,17.6-4.1,17.6-8.9c0-14.7-38.8-3.2-38.8-21.1
		c0-9.9,11.9-12.2,21.8-12.2c8.4,0,12.5,1.8,15.2,2.5c1.8,0.4,1.3-1,2.3-1c0.5,0,0.8,0.5,0.9,2.8L398.1,22.4z"/>
	<polygon class="st1" points="49.2,0 49.2,12.6 80.2,50.5 49.2,50.5 49.2,58.5 80.2,58.5 49.2,96.4 49.2,109 93.6,54.5 	"/>
	<path class="st2" d="M44.4,12.6V0L0,54.5L44.4,109V97l0,0V50.5H13.5L44.4,12.6z M36.5,86.7l-23-28.2h23L36.5,86.7z"/>
</g>
</svg>
